# xmcd
# 
# Track frame offsets:
#     187
#     29555
#     51477
#     68662
#     88740
#     111852
#     142302
#     161147
#     182375
#     211380
# 
# Disc length: 3215
# 
# Revision: 3
# Processed by: cddbd v1.5.2PL0 Copyright (c) Steve Scherf et al.
# Submitted via: BonkEnc v1.0.15
# 
DISCID=960c8d0a
DTITLE=Wes Montgomery - Boss Guitar
DYEAR=1963
DGENRE=Jazz
TTITLE0=Besame Mucho
TTITLE1=Dearly Beloved
TTITLE2=Days Of Wine And Roses
TTITLE3=The Trick Bag
TTITLE4=Canadian Sunset
TTITLE5=Fried Pies
TTITLE6=The Breeze And I
TTITLE7=For Heaven's Sake
TTITLE8=Besame Mucho(Take2)
TTITLE9=Fried Pies(Take1)
EXTD=YEAR: 1963
EXTT0=
EXTT1=
EXTT2=
EXTT3=
EXTT4=
EXTT5=
EXTT6=
EXTT7=
EXTT8=
EXTT9=
PLAYORDER=
